<svg id="Layer_1" data-name="Layer 1" xmlns="http://www.w3.org/2000/svg" viewBox="0 0 777.11 426.23"><defs><style>.cls-1{fill:#3498db;}.cls-2{fill:#ffef27;}.cls-3{fill:#fff;}</style></defs><title>logo</title><path class="cls-1" d="M607.11,553.63h41V670.54h-41Z" transform="translate(-571.45 -326.89)"/><path class="cls-1" d="M777.72,591.81h37.75v62.55c-17.48,12.51-41.42,19.2-63.42,19.2-48.1,0-83.26-32.57-83.26-78.51s35.16-78.52,84.12-78.52c28.26,0,51.12,9.71,66,27.61l-27.18,24.59c-10.35-11.43-22.22-16.82-36.67-16.82-25.88,0-43.14,17-43.14,43.14,0,25.45,17.26,43.14,42.71,43.14a54.14,54.14,0,0,0,23.08-5Z" transform="translate(-571.45 -326.89)"/><path class="cls-1" d="M986.3,519.55v151H951.14l-66.65-80.45v80.45H842.65v-151h35.16L944.46,600V519.55Z" transform="translate(-571.45 -326.89)"/><path class="cls-1" d="M1016.51,519.55h42.7v151h-42.7Z" transform="translate(-571.45 -326.89)"/><path class="cls-1" d="M1121.77,553.42h-46.38V519.55h135.24v33.87h-46.16V670.54h-42.7Z" transform="translate(-571.45 -326.89)"/><path class="cls-1" d="M1347.82,637.54v33H1226.6v-151H1345v33h-76.14V578H1336v31.92h-67.08v27.61Z" transform="translate(-571.45 -326.89)"/><path class="cls-2" d="M626.08,545.69a13.76,13.76,0,0,1-7.24-2c-3.53-2.14-6.15-6-7.55-11.25a31.86,31.86,0,0,1-1.07-6.94c0-1.23-.38-1.91.62-2.62s2.29-.39,3.43,0c.06,0,6.68,1.7,13,3.49,3.64,1,11.74,2.5,13.8,2.83-2.44-.88-10.72-3.79-13.79-4.73a106,106,0,0,1-15.36-5.65,24.17,24.17,0,0,1-2.59-1.42,7,7,0,0,1-3.9-6.62s0-.06,0-.09a4.53,4.53,0,0,1,2-3.4c3-2,4.2-1.91,17.81,2.09,5,1.48,9.26,2.65,13.63,3.74,1,.24,2.69-.05,3.45.1l-1.52-.62c-3.75-1.48-8.4-3.42-13.33-5-6-1.88-12.13-3.35-16.83-5.41s-6.6-4.27-6.41-9.1a5.69,5.69,0,0,1,2.29-4.46c2.32-1.63,2.75-1.4,9-.16A144.16,144.16,0,0,1,631,492.7c4.9,1.57,10,3.19,14.08,4.23a44.86,44.86,0,0,0,4.55.94,30.92,30.92,0,0,0-2.84-1.27c-3.25-1.27-7.52-3.44-12-4.74-9-2.6-18.17-4.35-26.37-9.88-4.19-2.82-6.78-5.55-8.23-9.48-1.27-3.45-1.48-7.1-1.71-11-.39-6.77-.88-15.19-7.27-27-8.73-10.91-14.65-22.17-17.59-33.48a59.08,59.08,0,0,1-.06-31.28,55,55,0,0,1,14.23-24.09A67.63,67.63,0,0,1,613.15,330h0A57.37,57.37,0,0,1,628.41,327a69.14,69.14,0,0,1,19,1.43,60.37,60.37,0,0,1,37.36,24.82l0,0a66.14,66.14,0,0,1,10.52,23.63,50.35,50.35,0,0,1-.34,22.12c-3,12.51-10.63,24.82-23.35,37.63a41.17,41.17,0,0,0-5.19,7.9c-2.68,5-6.42,13.7-9.07,26.48-.16.77-1.38,6.27-5.83,9.56-4.5,3.57-11.33,4.09-17.88,1.34a13,13,0,0,1-3.91-2.3,11.83,11.83,0,0,1-4.28-9v0c0-.28-.45-27.43-.45-38.15,0-2.91-4.18-6.29-7.87-9.27a50.35,50.35,0,0,1-6-5.39,10.91,10.91,0,0,1-2.73-7.55,9.54,9.54,0,0,1,2.47-6.43l.15-.15c3-2.65,5.76-2.42,7.56-1.77a12.74,12.74,0,0,1,4.44,3.18c.28.27.63.61.95.9.22-.65.45-1.5.61-2.1a18.7,18.7,0,0,1,2.43-6,8.84,8.84,0,0,1,14.68.74,16.89,16.89,0,0,1,1.68,5.51c0,.14.06.3.09.47.54-.52,1.12-1.15,1.52-1.58a22.93,22.93,0,0,1,3.68-3.43,6.7,6.7,0,0,1,6.69-.92l0,0a8.8,8.8,0,0,1,5.37,6.68c1.28,7.25-5.54,16.41-8.25,19-5.82,6-14.86,7.73-15.24,7.8a3.69,3.69,0,0,1-1.38-7.24h0c.07,0,7.21-1.43,11.38-5.74l.11-.1c2.44-2.32,6.7-9.18,6.12-12.46a1.28,1.28,0,0,0-.65-1,20.13,20.13,0,0,0-2.45,2.38c-2,2.17-4.49,4.84-7.84,4.84a5.32,5.32,0,0,1-.79-.05,5.74,5.74,0,0,1-4.65-3.61,16.11,16.11,0,0,1-1-3.8c-.64-3.6-1-3.63-1.86-3.71s-1,.12-1.22.41a13.89,13.89,0,0,0-1.34,3.71,22.48,22.48,0,0,1-1.31,3.94,6.8,6.8,0,0,1-4.11,3.82,6.55,6.55,0,0,1-5.48-.75,16.52,16.52,0,0,1-2.92-2.43,14.65,14.65,0,0,0-1.63-1.44.86.86,0,0,0-.17.13,3.62,3.62,0,0,0,.55,3.85,46.78,46.78,0,0,0,5.15,4.56c5,4,10.61,8.57,10.61,15,0,10.52.43,37.09.44,38a4.62,4.62,0,0,0,1.68,3.54,6,6,0,0,0,1.59,1l.33.12c4,1.72,8.19,1.6,10.55-.31l.15-.11a9.41,9.41,0,0,0,3-5.09s0,0,0,0c5.55-26.77,15.75-37.57,16.18-38l0,0c25.43-25.61,29.36-49.14,12.35-74.06-17.48-25.09-47.94-25.94-63-20.58-17.81,6.39-30.57,19.11-35,34.9-5.1,18.1.76,38.84,16.5,58.4a4,4,0,0,1,.37.54c7.32,13.4,7.89,23.21,8.31,30.37.43,7.38.65,11.08,6.75,15.28,5.92,4.07,15.65,6.87,24.24,9.34,11.14,3.2,19.19,5.51,21.56,10.47a6.74,6.74,0,0,1,.09,5.66c-.65,1.54-2.23,2.73-6.11,2.89a16.45,16.45,0,0,1-6.74-.79c-4.72-1.71-10.92-2.8-16.84-4.7-4.87-1.56-9.9-2.71-14-3.74-1-.24-1.78-.43-2.51-.58.78.38,1.71,1.46,2.81,1.91,4.16,1.69,9.49,3.37,14.65,5a166.43,166.43,0,0,1,16,5.61c2.56,1.13,2.43.88,3.75,2,3,2.57,2.9,5.22,2.57,6.56a5.63,5.63,0,0,1-2.8,3.59c-4.67,2.59-11.79.49-26.3-4.24-3.53-1.16-6.88-2.25-9.73-3.06a4.07,4.07,0,0,1,.93.47c3.28,3.14,9.81,4.91,15.25,6.58,4.45,1.36,8.79,2.59,11.82,3.58a8.71,8.71,0,0,1,3.74,1.93c2.41,2.08,3.16,4.32,3,5.47a5.75,5.75,0,0,1-2.85,4.2c-1.07.63-2.77.8-5.57.8-3,0-7.24-.92-14-2.82-2.54-.71-5-.81-7-1.49.75,2.55,2,5.17,4.16,6.44,2.54,1.53,6.31,1.73,11.2-.71,1.82-.92,4-.85,4.94,1a3.69,3.69,0,0,1-1.64,4.95A25.18,25.18,0,0,1,626.08,545.69Z" transform="translate(-571.45 -326.89)"/><path class="cls-3" d="M726,708.38H708.61v-8.24h44.51v8.24H735.74v44.21H726Z" transform="translate(-571.45 -326.89)"/><path class="cls-3" d="M802,729.66v22.93h-9.37V730.86c0-7.12-3.52-10.57-9.51-10.57-6.67,0-11.17,4.05-11.17,12.07v20.23h-9.37V697h9.37v20.23c3.07-3.3,7.79-5.1,13.34-5.1C794.86,712.12,802,717.59,802,729.66Z" transform="translate(-571.45 -326.89)"/><path class="cls-3" d="M854.73,735.58H823.34c1.12,5.84,6,9.59,13,9.59a14.29,14.29,0,0,0,10.86-4.35l5,5.77c-3.6,4.28-9.22,6.52-16.12,6.52-13.41,0-22.1-8.61-22.1-20.53s8.77-20.46,20.68-20.46c11.69,0,20.23,8.17,20.23,20.69C854.88,733.56,854.81,734.68,854.73,735.58Zm-31.47-6.22H846c-.75-5.77-5.17-9.74-11.32-9.74A11.05,11.05,0,0,0,823.26,729.36Z" transform="translate(-571.45 -326.89)"/><path class="cls-3" d="M930.79,744.42v8.17H891.45V700.14h38.29v8.16H901.19v13.64h25.33v8H901.19v14.46Z" transform="translate(-571.45 -326.89)"/><path class="cls-3" d="M940.23,727.86h20.61v7.79H940.23Z" transform="translate(-571.45 -326.89)"/><path class="cls-3" d="M1049.79,700.14l-17.39,52.45h-10.34l-13-38.82-13.19,38.82H985.49l-17.38-52.45h10.12l13,39.86,13.57-39.86h9l13.26,40.09,13.42-40.09Z" transform="translate(-571.45 -326.89)"/><path class="cls-3" d="M1094.3,735.58h-31.4c1.13,5.84,6,9.59,13,9.59a14.3,14.3,0,0,0,10.86-4.35l5,5.77c-3.59,4.28-9.21,6.52-16.11,6.52-13.41,0-22.1-8.61-22.1-20.53s8.76-20.46,20.68-20.46c11.69,0,20.23,8.17,20.23,20.69C1094.45,733.56,1094.38,734.68,1094.3,735.58Zm-31.47-6.22h22.7c-.75-5.77-5.17-9.74-11.31-9.74A11.05,11.05,0,0,0,1062.83,729.36Z" transform="translate(-571.45 -326.89)"/><path class="cls-3" d="M1143.91,735.58h-31.4c1.12,5.84,6,9.59,13,9.59a14.32,14.32,0,0,0,10.87-4.35l5,5.77c-3.6,4.28-9.22,6.52-16.11,6.52-13.41,0-22.11-8.61-22.11-20.53s8.77-20.46,20.69-20.46c11.69,0,20.23,8.17,20.23,20.69C1144.06,733.56,1144,734.68,1143.91,735.58Zm-31.47-6.22h22.7c-.75-5.77-5.17-9.74-11.31-9.74A11.05,11.05,0,0,0,1112.44,729.36Z" transform="translate(-571.45 -326.89)"/><path class="cls-3" d="M1172.38,735.43l-7,6.59v10.57h-9.36V697h9.36v33.57l19.41-18h11.24l-16.71,16.79,18.29,23.23h-11.39Z" transform="translate(-571.45 -326.89)"/><path class="cls-3" d="M1242.52,735.58h-31.4c1.13,5.84,6,9.59,13,9.59a14.3,14.3,0,0,0,10.86-4.35l5,5.77c-3.59,4.28-9.21,6.52-16.11,6.52-13.41,0-22.1-8.61-22.1-20.53s8.77-20.46,20.68-20.46c11.69,0,20.23,8.17,20.23,20.69C1242.67,733.56,1242.6,734.68,1242.52,735.58Zm-31.47-6.22h22.7c-.74-5.77-5.17-9.74-11.31-9.74A11.05,11.05,0,0,0,1211.05,729.36Z" transform="translate(-571.45 -326.89)"/><path class="cls-3" d="M1294.08,729.66v22.93h-9.37V730.86c0-7.12-3.52-10.57-9.52-10.57-6.67,0-11.16,4.05-11.16,12.07v20.23h-9.37v-40h8.92v5.17c3.07-3.67,7.94-5.62,13.79-5.62C1287,712.12,1294.08,717.59,1294.08,729.66Z" transform="translate(-571.45 -326.89)"/><path class="cls-3" d="M1348.55,697v55.6h-9v-5.17c-3.15,3.82-7.79,5.69-13.26,5.69-11.62,0-20.23-8.09-20.23-20.53s8.61-20.46,20.23-20.46c5.17,0,9.74,1.73,12.89,5.4V697Zm-9.21,35.59c0-7.64-5.17-12.51-11.92-12.51s-11.91,4.87-11.91,12.51,5.17,12.52,11.91,12.52S1339.34,740.23,1339.34,732.58Z" transform="translate(-571.45 -326.89)"/></svg>