<svg xmlns="http://www.w3.org/2000/svg" id="Layer_1" data-name="Layer 1" viewBox="0 0 202.58 375.22"><defs><style>.cls-1{fill:#f3ab44}.cls-2{fill:#ef8839}.cls-3{fill:#35a3c2}.cls-4{fill:#4ec8f0}.cls-5{fill:#40c1e6}.cls-6{fill:#f7be4a}.cls-7{fill:#d5e5e5}.cls-8{fill:#c6d5d6}.cls-9{fill:#566667}.cls-10{fill:#fff}.cls-11{fill:#a41e22}.cls-12{fill:#851619}.cls-13{fill:#465657}.cls-14{fill:#657677}</style></defs><title>rocket</title><path d="M381.72,588.38c-6.37,58.57-62.35,77.27-62.35,77.27l62.35,69.54S388.08,529.81,381.72,588.38Z" class="cls-1" transform="translate(-319.37 -408.26)"/><path d="M385.11,592c-6.37,58.57-62.34,77.27-62.34,77.27l62.34,69.54S391.47,533.47,385.11,592Z" class="cls-2" transform="translate(-319.37 -408.26)"/><path d="M459.61,588.38C466,647,522,665.65,522,665.65l-62.34,69.54S453.25,529.81,459.61,588.38Z" class="cls-1" transform="translate(-319.37 -408.26)"/><path d="M456.22,592c6.36,58.56,62.34,77.27,62.34,77.27l-62.34,69.54S449.86,533.47,456.22,592Z" class="cls-2" transform="translate(-319.37 -408.26)"/><path d="M398,559.19c0-2.46,0-4.9.06-7.34,0-.75,0-1.5.05-2.25,0-1.67.06-3.34.11-5,0-.88.07-1.74.1-2.62.05-1.53.11-3.06.18-4.58,0-.84.09-1.68.12-2.52.09-1.54.16-3.08.25-4.6L399,528c.1-1.57.2-3.14.31-4.7.05-.71.12-1.41.17-2.13.12-1.61.25-3.22.39-4.81,0-.61.1-1.2.15-1.79.16-1.71.31-3.41.48-5.08,0-.47.09-.92.14-1.39.18-1.81.37-3.61.56-5.39,0-.31.08-.62.11-.94.22-1.93.44-3.85.68-5.75,0-.13,0-.26.05-.4,1.84-15,4.12-28.66,6.43-40.54a85.69,85.69,0,0,1-11.89-2.09c-11.17,26.72-22.17,63.27-22.17,103.59,0,81.87,20.31,148.27,45.35,148.27A16.92,16.92,0,0,0,430.06,701c-3.74-3.75-7.28-9-10.51-15.62C406.62,659.24,398,612.51,398,559.19Z" class="cls-3" transform="translate(-319.37 -408.26)"/><path d="M442.93,452.94a88.72,88.72,0,0,1-12.33,2.15c5.3,27.3,10.48,64.15,10.48,104.1,0,53.32-8.63,100-21.53,126.16,3.23,6.59,6.77,11.87,10.51,15.62,20.07-15.25,35-74.14,35-144.44C465.1,516.21,454.11,479.66,442.93,452.94Z" class="cls-4" transform="translate(-319.37 -408.26)"/><path d="M419.75,455.67a100.52,100.52,0,0,1-11.24-.63c-2.31,11.87-4.6,25.57-6.45,40.53,0,.14,0,.27-.05.4-.24,1.9-.46,3.82-.68,5.75,0,.32-.07.63-.11.94-.19,1.78-.38,3.58-.56,5.39-.05.47-.1.92-.14,1.39-.17,1.67-.32,3.37-.48,5.08-.05.59-.11,1.18-.15,1.79-.14,1.59-.27,3.2-.39,4.81-.05.72-.12,1.42-.17,2.13-.11,1.56-.21,3.13-.31,4.7l-.15,2.33c-.09,1.52-.16,3.06-.25,4.6,0,.84-.09,1.68-.12,2.52-.07,1.52-.13,3.05-.18,4.58,0,.88-.07,1.74-.1,2.62-.05,1.66-.08,3.33-.11,5,0,.75-.05,1.5-.05,2.25,0,2.44-.06,4.88-.06,7.34,0,53.32,8.62,100,21.55,126.16,12.9-26.11,21.53-72.84,21.53-126.16,0-40-5.18-76.8-10.48-104.1h0A98.33,98.33,0,0,1,419.75,455.67Z" class="cls-5" transform="translate(-319.37 -408.26)"/><path d="M419.55,409c.1-.37.18-.59.21-.68-.7,1-12,17.91-23.16,44.63A85.69,85.69,0,0,0,408.49,455C413.41,429.71,418.45,412.61,419.55,409Z" class="cls-2" transform="translate(-319.37 -408.26)"/><path d="M430.6,455.09a88.72,88.72,0,0,0,12.33-2.15c-11.12-26.72-22.44-43.61-23.12-44.63l0-.05a.1.1,0,0,1,0,.05c0,.09-.11.31-.21.68C420.64,412.61,425.67,429.74,430.6,455.09Z" class="cls-6" transform="translate(-319.37 -408.26)"/><path d="M408.51,455a100.52,100.52,0,0,0,11.24.63,98.33,98.33,0,0,0,10.84-.59h0c-4.93-25.35-10-42.48-11.05-46.1C418.46,412.6,413.41,429.71,408.51,455Z" class="cls-1" transform="translate(-319.37 -408.26)"/><path d="M401.22,502.66c0-.31.08-.62.11-.94C401.3,502,401.26,502.35,401.22,502.66Z" class="cls-7" transform="translate(-319.37 -408.26)"/><path d="M400.52,509.44c0-.47.09-.92.14-1.39C400.61,508.52,400.56,509,400.52,509.44Z" class="cls-7" transform="translate(-319.37 -408.26)"/><path d="M399.89,516.31c0-.61.1-1.2.15-1.79C400,515.11,399.93,515.7,399.89,516.31Z" class="cls-7" transform="translate(-319.37 -408.26)"/><path d="M398.5,537.4c0-.84.09-1.68.12-2.52C398.59,535.72,398.53,536.56,398.5,537.4Z" class="cls-7" transform="translate(-319.37 -408.26)"/><path d="M398.22,544.6c0-.88.07-1.74.1-2.62C398.29,542.86,398.25,543.72,398.22,544.6Z" class="cls-7" transform="translate(-319.37 -408.26)"/><path d="M398.06,551.85c0-.75,0-1.5.05-2.25C398.09,550.35,398.06,551.1,398.06,551.85Z" class="cls-7" transform="translate(-319.37 -408.26)"/><path d="M399.33,523.25c.05-.71.12-1.41.17-2.13C399.45,521.84,399.38,522.54,399.33,523.25Z" class="cls-7" transform="translate(-319.37 -408.26)"/><path d="M398.87,530.28,399,528Z" class="cls-7" transform="translate(-319.37 -408.26)"/><path d="M402,496c0-.13,0-.26.05-.4C402,495.71,402,495.84,402,496Z" class="cls-7" transform="translate(-319.37 -408.26)"/><path d="M398.62,534.88c.09-1.54.16-3.08.25-4.6C398.78,531.8,398.71,533.34,398.62,534.88Z" class="cls-8" transform="translate(-319.37 -408.26)"/><path d="M399,528c.1-1.57.2-3.14.31-4.7C399.22,524.81,399.12,526.38,399,528Z" class="cls-8" transform="translate(-319.37 -408.26)"/><path d="M398.11,549.6c0-1.67.06-3.34.11-5C398.17,546.26,398.14,547.93,398.11,549.6Z" class="cls-8" transform="translate(-319.37 -408.26)"/><path d="M398.32,542c.05-1.53.11-3.06.18-4.58C398.43,538.92,398.37,540.45,398.32,542Z" class="cls-8" transform="translate(-319.37 -408.26)"/><path d="M401.33,501.72c.22-1.93.44-3.85.68-5.75C401.77,497.87,401.55,499.79,401.33,501.72Z" class="cls-8" transform="translate(-319.37 -408.26)"/><path d="M398,559.19c0-2.46,0-4.9.06-7.34C398,554.29,398,556.73,398,559.19Z" class="cls-8" transform="translate(-319.37 -408.26)"/><path d="M408.49,455c-2.31,11.88-4.59,25.57-6.43,40.54,1.85-15,4.14-28.66,6.45-40.53Z" class="cls-8" transform="translate(-319.37 -408.26)"/><path d="M400.66,508.05c.18-1.81.37-3.61.56-5.39C401,504.44,400.84,506.24,400.66,508.05Z" class="cls-8" transform="translate(-319.37 -408.26)"/><path d="M400,514.52c.16-1.71.31-3.41.48-5.08C400.35,511.11,400.2,512.81,400,514.52Z" class="cls-8" transform="translate(-319.37 -408.26)"/><path d="M399.5,521.12c.12-1.61.25-3.22.39-4.81C399.75,517.9,399.62,519.51,399.5,521.12Z" class="cls-8" transform="translate(-319.37 -408.26)"/><path d="M419.55,409c-1.1,3.62-6.14,20.72-11.06,46h0C413.41,429.71,418.46,412.6,419.55,409Z" class="cls-7" transform="translate(-319.37 -408.26)"/><path d="M439.8,577.87c0,10.33-8.73,18.69-19.49,18.69s-19.48-8.36-19.48-18.69,8.72-18.68,19.48-18.68S439.8,567.55,439.8,577.87Z" class="cls-7" transform="translate(-319.37 -408.26)"/><path d="M420.31,600c-12.69,0-23-9.9-23-22.09s10.33-22.08,23-22.08,23,9.91,23,22.08S433,600,420.31,600Zm0-37.38c-8.79,0-15.94,6.86-15.94,15.29s7.15,15.3,15.94,15.3,15.95-6.87,15.95-15.3S429.11,562.58,420.31,562.58Z" class="cls-9" transform="translate(-319.37 -408.26)"/><path d="M432.6,574.12a7.8,7.8,0,1,1-7.79-7.48A7.63,7.63,0,0,1,432.6,574.12Z" class="cls-10" transform="translate(-319.37 -408.26)"/><path d="M439.8,523.37c0,10.32-8.73,18.69-19.49,18.69s-19.48-8.37-19.48-18.69,8.72-18.69,19.48-18.69S439.8,513.05,439.8,523.37Z" class="cls-7" transform="translate(-319.37 -408.26)"/><path d="M420.31,545.45c-12.69,0-23-9.9-23-22.08s10.34-22.08,23-22.08,23,9.91,23,22.08S433,545.45,420.31,545.45Zm0-37.37c-8.79,0-15.94,6.86-15.94,15.29s7.15,15.29,15.94,15.29,15.95-6.86,15.95-15.29S429.1,508.08,420.31,508.08Z" class="cls-9" transform="translate(-319.37 -408.26)"/><path d="M432.61,519.62a7.81,7.81,0,1,1-7.8-7.48A7.64,7.64,0,0,1,432.61,519.62Z" class="cls-10" transform="translate(-319.37 -408.26)"/><path d="M434.23,477.63C434.23,485,428,491,420.31,491s-13.91-6-13.91-13.34,6.23-13.34,13.91-13.34S434.23,470.26,434.23,477.63Z" class="cls-7" transform="translate(-319.37 -408.26)"/><path d="M420.31,493.4c-9.06,0-16.43-7.08-16.43-15.77s7.37-15.76,16.43-15.76,16.44,7.06,16.44,15.76S429.38,493.4,420.31,493.4Zm0-26.69a10.92,10.92,0,1,0,11.39,10.92A11.17,11.17,0,0,0,420.31,466.71Z" class="cls-9" transform="translate(-319.37 -408.26)"/><path d="M429.09,475a5.57,5.57,0,1,1-5.57-5.34A5.46,5.46,0,0,1,429.09,475Z" class="cls-10" transform="translate(-319.37 -408.26)"/><path d="M420.31,783.48s20.31-23.68,20.31-52.89v-30.5H400v30.5C400,759.8,420.31,783.48,420.31,783.48Z" class="cls-11" transform="translate(-319.37 -408.26)"/><path d="M420.31,760.67s13.91-16.22,13.91-36.22v-20.9H406.4v20.9C406.4,744.45,420.31,760.67,420.31,760.67Z" class="cls-12" transform="translate(-319.37 -408.26)"/><path d="M445.25,690.64v6.11a8.91,8.91,0,0,1-9.09,8.73H403.39a8.92,8.92,0,0,1-9.1-8.73v-6.11a8.93,8.93,0,0,1,9.1-8.73h32.76A8.93,8.93,0,0,1,445.25,690.64Z" class="cls-13" transform="translate(-319.37 -408.26)"/><path d="M445.25,690.64v6.11a8.91,8.91,0,0,1-9.09,8.73H413.71a8.91,8.91,0,0,1-9.1-8.73v-6.11a8.92,8.92,0,0,1,9.1-8.73h22.44A8.93,8.93,0,0,1,445.25,690.64Z" class="cls-14" transform="translate(-319.37 -408.26)"/><path d="M436,690.64v6.11a8.92,8.92,0,0,1-9.1,8.73H413.71a8.91,8.91,0,0,1-9.1-8.73v-6.11a8.92,8.92,0,0,1,9.1-8.73h13.21A8.93,8.93,0,0,1,436,690.64Z" class="cls-9" transform="translate(-319.37 -408.26)"/><polygon points="112.64 235.93 100.4 345.65 88.15 235.93 100.4 206.84 112.64 235.93" class="cls-1"/><polygon points="100.4 206.84 100.4 345.65 88.15 235.93 100.4 206.84" class="cls-2"/></svg>